<svg id="SvgjsSvg1001" width="360" height="360" xmlns="http://www.w3.org/2000/svg" version="1.1" xmlns:xlink="http://www.w3.org/1999/xlink" xmlns:svgjs="http://svgjs.com/svgjs"><defs id="SvgjsDefs1002"></defs><g id="SvgjsG1008"><svg xmlns="http://www.w3.org/2000/svg" enable-background="new 0 0 1000 1000" viewBox="0 0 1000 1000" width="360" height="360"><ellipse cx="504.219" cy="776.841" fill="#430b48" rx="92.467" ry="17.159" class="color430b48 svgShape"></ellipse><path fill="#e0e0e0" d="M475.242 660.333c-23.453 0-42.465 17.446-42.465 38.966v1.394c0 42.055 31.299 76.147 69.909 76.147 38.61 0 69.909-34.092 69.909-76.147V699.3c0-21.521-19.012-38.966-42.465-38.966h-54.888z" class="colore0e0e0 svgShape"></path><ellipse cx="502.686" cy="674" fill="#cfc3d8" rx="49.314" ry="13.667" class="colorcfc3d8 svgShape"></ellipse><ellipse cx="502.686" cy="672.667" fill="#430b48" rx="36.797" ry="10.198" class="color430b48 svgShape"></ellipse><path fill="#cfc3d8" d="M502.686 744.724c-34.893 0-63.809-16.835-69.054-53.238a36.028 36.028 0 0 0-.855 7.813v1.394c0 42.055 31.299 76.147 69.909 76.147 38.61 0 69.909-34.092 69.909-76.147V699.3c0-2.676-.295-5.289-.855-7.813-5.244 36.402-34.16 53.237-69.054 53.237z" class="colorcfc3d8 svgShape"></path><path fill="none" stroke="#430b48" stroke-linecap="round" stroke-linejoin="round" stroke-miterlimit="10" stroke-width="8" d="M475.242 660.333c-23.453 0-42.465 17.446-42.465 38.966v1.394c0 42.055 31.299 76.147 69.909 76.147 38.61 0 69.909-34.092 69.909-76.147V699.3c0-21.521-19.012-38.966-42.465-38.966h-54.888zM612.52 285.141h36" class="colorStroke430b48 svgStroke"></path><circle cx="664.52" cy="285.141" r="16" fill="#bfb0cc" class="colorbfb0cc svgShape"></circle><circle cx="664.52" cy="285.141" r="16" fill="none" stroke="#430b48" stroke-linecap="round" stroke-linejoin="round" stroke-miterlimit="10" stroke-width="8" class="colorStroke430b48 svgStroke"></circle><path fill="#4b1151" d="M625.984 522.542a73.003 73.003 0 0 1 .775-22.438c.884-3.826 4.979-6.759 8.64-6.632 3.661.126 7.545 3.334 8.162 7.212.9 7.474.639 15.043-.775 22.438-.883 3.826-4.979 6.758-8.64 6.632-3.661-.126-7.544-3.334-8.162-7.212z" class="color4b1151 svgShape"></path><path fill="#430b48" d="M647.346 522.109c-2.526-6.936-4.103-14.217-4.261-21.596-.082-3.849 3.247-7.563 6.772-8.258 3.631-.701 8.015 1.475 9.401 5.067a63.917 63.917 0 0 1 4.261 21.597c.083 3.849-3.247 7.563-6.771 8.258-3.525.694-7.948-1.503-9.402-5.068z" class="color430b48 svgShape"></path><path fill="#4b1151" d="M667.589 516.968c-4.016-6.018-7.209-12.586-9.073-19.576-.972-3.646 1.336-7.956 4.531-9.436 3.399-1.54 7.975-.456 10.129 2.642a62.659 62.659 0 0 1 9.073 19.576c.972 3.646-1.336 7.956-4.531 9.436-3.195 1.481-7.917.416-10.129-2.642z" class="color4b1151 svgShape"></path><path fill="#4b1151" d="M685.778 507.52c-5.196-4.823-9.732-10.357-13.098-16.597-1.755-3.255-.535-7.887 2.174-10.024 2.988-2.293 7.498-2.248 10.255.216a61.368 61.368 0 0 1 13.098 16.597c1.756 3.254.535 7.887-2.174 10.024-2.709 2.137-7.452 2.195-10.255-.216z" class="color4b1151 svgShape"></path><path fill="#4b1151" d="M701.277 494.327c-6.04-3.426-11.613-7.678-16.228-12.867-2.407-2.707-2.289-7.398-.188-10.046 2.418-2.933 6.64-3.834 9.824-2.106a60.137 60.137 0 0 1 16.228 12.867c2.407 2.706 2.288 7.397.188 10.046-2.1 2.648-6.608 3.773-9.824 2.106z" class="color4b1151 svgShape"></path><path fill="#4b1151" d="M713.485 477.947c-6.534-1.886-12.81-4.665-18.388-8.555-2.91-2.029-3.866-6.523-2.47-9.524 1.705-3.436 5.45-5.165 8.876-4.246a58.866 58.866 0 0 1 18.388 8.555c2.91 2.029 3.866 6.523 2.47 9.524-1.396 3.001-5.433 5.1-8.876 4.246zM721.748 458.876c-6.652-.267-13.267-1.444-19.479-3.839-3.24-1.249-5.199-5.299-4.572-8.477.869-3.772 3.975-6.183 7.446-6.109a57.624 57.624 0 0 1 19.479 3.839c3.24 1.249 5.198 5.299 4.572 8.477-.626 3.179-3.974 6.117-7.446 6.109zM724.547 439.336a63.168 63.168 0 0 1-19.343-1.824c-3.26-.96-5.582-4.648-5.284-7.805.518-3.871 3.269-6.346 6.65-6.68a63.168 63.168 0 0 1 19.343 1.824c3.26.96 5.582 4.649 5.284 7.805-.297 3.157-3.268 6.347-6.65 6.68z" class="color4b1151 svgShape"></path><path fill="none" stroke="#430b48" stroke-linecap="round" stroke-linejoin="round" stroke-miterlimit="10" stroke-width="6" d="M625.984 522.542a73.003 73.003 0 0 1 .775-22.438c.884-3.826 4.979-6.759 8.64-6.632h0c3.661.126 7.545 3.334 8.162 7.212.9 7.474.639 15.043-.775 22.438-.883 3.826-4.979 6.758-8.64 6.632h0c-3.661-.126-7.544-3.334-8.162-7.212z" class="colorStroke430b48 svgStroke"></path><path fill="none" stroke="#430b48" stroke-linecap="round" stroke-linejoin="round" stroke-miterlimit="10" stroke-width="6" d="M647.346 522.109c-2.526-6.936-4.103-14.217-4.261-21.596-.082-3.849 3.247-7.563 6.772-8.258h0c3.631-.701 8.015 1.475 9.401 5.067a63.917 63.917 0 0 1 4.261 21.597c.083 3.849-3.247 7.563-6.771 8.258h0c-3.525.694-7.948-1.503-9.402-5.068z" class="colorStroke430b48 svgStroke"></path><path fill="none" stroke="#430b48" stroke-linecap="round" stroke-linejoin="round" stroke-miterlimit="10" stroke-width="6" d="M667.589 516.968c-4.016-6.018-7.209-12.586-9.073-19.576-.972-3.646 1.336-7.956 4.531-9.436h0c3.399-1.54 7.975-.456 10.129 2.642a62.659 62.659 0 0 1 9.073 19.576c.972 3.646-1.336 7.956-4.531 9.436h0c-3.195 1.481-7.917.416-10.129-2.642z" class="colorStroke430b48 svgStroke"></path><path fill="none" stroke="#430b48" stroke-linecap="round" stroke-linejoin="round" stroke-miterlimit="10" stroke-width="6" d="M685.778 507.52c-5.196-4.823-9.732-10.357-13.098-16.597-1.755-3.255-.535-7.887 2.174-10.024h0c2.988-2.293 7.498-2.248 10.255.216a61.368 61.368 0 0 1 13.098 16.597c1.756 3.254.535 7.887-2.174 10.024h0c-2.709 2.137-7.452 2.195-10.255-.216z" class="colorStroke430b48 svgStroke"></path><path fill="none" stroke="#430b48" stroke-linecap="round" stroke-linejoin="round" stroke-miterlimit="10" stroke-width="6" d="M701.277 494.327c-6.04-3.426-11.613-7.678-16.228-12.867-2.407-2.707-2.289-7.398-.188-10.046h0c2.418-2.933 6.64-3.834 9.824-2.106a60.137 60.137 0 0 1 16.228 12.867c2.407 2.706 2.288 7.397.188 10.046h0c-2.1 2.648-6.608 3.773-9.824 2.106z" class="colorStroke430b48 svgStroke"></path><path fill="none" stroke="#430b48" stroke-linecap="round" stroke-linejoin="round" stroke-miterlimit="10" stroke-width="6" d="M713.485 477.947c-6.534-1.886-12.81-4.665-18.388-8.555-2.91-2.029-3.866-6.523-2.47-9.524h0c1.705-3.436 5.45-5.165 8.876-4.246a58.866 58.866 0 0 1 18.388 8.555c2.91 2.029 3.866 6.523 2.47 9.524h0c-1.396 3.001-5.433 5.1-8.876 4.246zM721.748 458.876c-6.652-.267-13.267-1.444-19.479-3.839-3.24-1.249-5.199-5.299-4.572-8.477h0c.869-3.772 3.975-6.183 7.446-6.109a57.624 57.624 0 0 1 19.479 3.839c3.24 1.249 5.198 5.299 4.572 8.477h0c-.626 3.179-3.974 6.117-7.446 6.109zM724.547 439.336a63.168 63.168 0 0 1-19.343-1.824c-3.26-.96-5.582-4.648-5.284-7.805h0c.518-3.871 3.269-6.346 6.65-6.68a63.168 63.168 0 0 1 19.343 1.824c3.26.96 5.582 4.649 5.284 7.805h0c-.297 3.157-3.268 6.347-6.65 6.68z" class="colorStroke430b48 svgStroke"></path><path fill="#cfc3d8" d="M726.824 371.748v19.495a9.627 9.627 0 0 1-9.627 9.627 9.627 9.627 0 0 1-9.627-9.627v-12.756h-19.254v16.366c0 15.95 12.93 28.881 28.881 28.881 15.95 0 28.881-12.93 28.881-28.881v-23.105h-19.254z" class="colorcfc3d8 svgShape"></path><path fill="#bfb0cc" d="M711.356 398.882c-2.297-1.759-3.785-4.522-3.785-7.639v-8.202a46.753 46.753 0 0 1-.076-2.548c0-.673.019-1.341.048-2.006h-19.225v16.366c0 15.95 12.93 28.881 28.881 28.881a28.74 28.74 0 0 0 14.315-3.801c-8.857-4.235-16.028-11.728-20.158-21.051z" class="colorbfb0cc svgShape"></path><path fill="none" stroke="#430b48" stroke-linecap="round" stroke-linejoin="round" stroke-miterlimit="10" stroke-width="8" d="M726.824 371.748v19.495a9.627 9.627 0 0 1-9.627 9.627 9.627 9.627 0 0 1-9.627-9.627v-12.756h-19.254v16.366c0 15.95 12.93 28.881 28.881 28.881h0c15.95 0 28.881-12.93 28.881-28.881v-23.105h-19.254z" class="colorStroke430b48 svgStroke"></path><path fill="#4b1151" d="M379.388 522.542c.9-7.474.639-15.043-.775-22.438-.884-3.826-4.979-6.759-8.64-6.632-3.661.126-7.545 3.334-8.162 7.212a73.003 73.003 0 0 0 .775 22.438c.883 3.826 4.979 6.758 8.64 6.632 3.662-.126 7.545-3.334 8.162-7.212z" class="color4b1151 svgShape"></path><path fill="#430b48" d="M358.027 522.109c2.526-6.936 4.103-14.217 4.261-21.596.082-3.849-3.247-7.563-6.772-8.258-3.631-.701-8.015 1.475-9.401 5.067a63.893 63.893 0 0 0-4.261 21.597c-.083 3.849 3.247 7.563 6.772 8.258 3.524.694 7.947-1.503 9.401-5.068z" class="color430b48 svgShape"></path><path fill="#4b1151" d="M337.784 516.968c4.016-6.018 7.209-12.586 9.073-19.576.972-3.646-1.336-7.956-4.531-9.436-3.399-1.54-7.975-.456-10.129 2.642a62.659 62.659 0 0 0-9.073 19.576c-.972 3.646 1.336 7.956 4.531 9.436 3.195 1.481 7.917.416 10.129-2.642z" class="color4b1151 svgShape"></path><path fill="#4b1151" d="M319.595 507.52c5.196-4.823 9.732-10.357 13.098-16.597 1.756-3.255.535-7.887-2.174-10.024-2.988-2.293-7.498-2.248-10.255.216a61.368 61.368 0 0 0-13.098 16.597c-1.756 3.254-.535 7.887 2.174 10.024 2.709 2.137 7.452 2.195 10.255-.216z" class="color4b1151 svgShape"></path><path fill="#4b1151" d="M304.096 494.327c6.04-3.426 11.613-7.678 16.228-12.867 2.407-2.707 2.289-7.398.188-10.046-2.418-2.933-6.64-3.834-9.824-2.106a60.137 60.137 0 0 0-16.228 12.867c-2.408 2.706-2.288 7.397-.188 10.046 2.099 2.648 6.608 3.773 9.824 2.106z" class="color4b1151 svgShape"></path><path fill="#4b1151" d="M291.887 477.947c6.534-1.886 12.81-4.665 18.388-8.555 2.91-2.029 3.866-6.523 2.47-9.524-1.705-3.436-5.45-5.165-8.876-4.246a58.866 58.866 0 0 0-18.388 8.555c-2.91 2.029-3.866 6.523-2.47 9.524 1.397 3.001 5.434 5.1 8.876 4.246zM283.625 458.876c6.652-.267 13.267-1.444 19.479-3.839 3.24-1.249 5.199-5.299 4.572-8.477-.869-3.772-3.975-6.183-7.446-6.109a57.624 57.624 0 0 0-19.479 3.839c-3.24 1.249-5.198 5.299-4.572 8.477.626 3.179 3.974 6.117 7.446 6.109zM280.826 439.336a63.168 63.168 0 0 0 19.343-1.824c3.26-.96 5.582-4.648 5.284-7.805-.518-3.871-3.268-6.346-6.65-6.68a63.168 63.168 0 0 0-19.343 1.824c-3.26.96-5.582 4.649-5.284 7.805.297 3.157 3.268 6.347 6.65 6.68z" class="color4b1151 svgShape"></path><path fill="none" stroke="#430b48" stroke-linecap="round" stroke-linejoin="round" stroke-miterlimit="10" stroke-width="6" d="M379.388 522.542c.9-7.474.639-15.043-.775-22.438-.884-3.826-4.979-6.759-8.64-6.632h0c-3.661.126-7.545 3.334-8.162 7.212a73.003 73.003 0 0 0 .775 22.438c.883 3.826 4.979 6.758 8.64 6.632h0c3.662-.126 7.545-3.334 8.162-7.212z" class="colorStroke430b48 svgStroke"></path><path fill="none" stroke="#430b48" stroke-linecap="round" stroke-linejoin="round" stroke-miterlimit="10" stroke-width="6" d="M358.027 522.109c2.526-6.936 4.103-14.217 4.261-21.596.082-3.849-3.247-7.563-6.772-8.258h0c-3.631-.701-8.015 1.475-9.401 5.067a63.893 63.893 0 0 0-4.261 21.597c-.083 3.849 3.247 7.563 6.772 8.258h0c3.524.694 7.947-1.503 9.401-5.068z" class="colorStroke430b48 svgStroke"></path><path fill="none" stroke="#430b48" stroke-linecap="round" stroke-linejoin="round" stroke-miterlimit="10" stroke-width="6" d="M337.784 516.968c4.016-6.018 7.209-12.586 9.073-19.576.972-3.646-1.336-7.956-4.531-9.436h0c-3.399-1.54-7.975-.456-10.129 2.642a62.659 62.659 0 0 0-9.073 19.576c-.972 3.646 1.336 7.956 4.531 9.436h0c3.195 1.481 7.917.416 10.129-2.642z" class="colorStroke430b48 svgStroke"></path><path fill="none" stroke="#430b48" stroke-linecap="round" stroke-linejoin="round" stroke-miterlimit="10" stroke-width="6" d="M319.595 507.52c5.196-4.823 9.732-10.357 13.098-16.597 1.756-3.255.535-7.887-2.174-10.024h0c-2.988-2.293-7.498-2.248-10.255.216a61.368 61.368 0 0 0-13.098 16.597c-1.756 3.254-.535 7.887 2.174 10.024h0c2.709 2.137 7.452 2.195 10.255-.216z" class="colorStroke430b48 svgStroke"></path><path fill="none" stroke="#430b48" stroke-linecap="round" stroke-linejoin="round" stroke-miterlimit="10" stroke-width="6" d="M304.096 494.327c6.04-3.426 11.613-7.678 16.228-12.867 2.407-2.707 2.289-7.398.188-10.046h0c-2.418-2.933-6.64-3.834-9.824-2.106a60.137 60.137 0 0 0-16.228 12.867c-2.408 2.706-2.288 7.397-.188 10.046h0c2.099 2.648 6.608 3.773 9.824 2.106z" class="colorStroke430b48 svgStroke"></path><path fill="none" stroke="#430b48" stroke-linecap="round" stroke-linejoin="round" stroke-miterlimit="10" stroke-width="6" d="M291.887 477.947c6.534-1.886 12.81-4.665 18.388-8.555 2.91-2.029 3.866-6.523 2.47-9.524h0c-1.705-3.436-5.45-5.165-8.876-4.246a58.866 58.866 0 0 0-18.388 8.555c-2.91 2.029-3.866 6.523-2.47 9.524h0c1.397 3.001 5.434 5.1 8.876 4.246zM283.625 458.876c6.652-.267 13.267-1.444 19.479-3.839 3.24-1.249 5.199-5.299 4.572-8.477h0c-.869-3.772-3.975-6.183-7.446-6.109a57.624 57.624 0 0 0-19.479 3.839c-3.24 1.249-5.198 5.299-4.572 8.477h0c.626 3.179 3.974 6.117 7.446 6.109zM280.826 439.336a63.168 63.168 0 0 0 19.343-1.824c3.26-.96 5.582-4.648 5.284-7.805h0c-.518-3.871-3.268-6.346-6.65-6.68a63.168 63.168 0 0 0-19.343 1.824c-3.26.96-5.582 4.649-5.284 7.805h0c.297 3.157 3.268 6.347 6.65 6.68z" class="colorStroke430b48 svgStroke"></path><path fill="#cfc3d8" d="M278.548 371.748v19.495a9.627 9.627 0 0 0 9.627 9.627 9.627 9.627 0 0 0 9.627-9.627v-12.756h19.254v16.366c0 15.95-12.93 28.881-28.881 28.881-15.95 0-28.881-12.93-28.881-28.881v-23.105h19.254z" class="colorcfc3d8 svgShape"></path><path fill="#bfb0cc" d="M294.017 398.882c2.297-1.759 3.785-4.522 3.785-7.639v-8.202c.046-.844.076-1.692.076-2.548 0-.673-.019-1.341-.048-2.006h19.225v16.366c0 15.95-12.93 28.881-28.881 28.881a28.74 28.74 0 0 1-14.315-3.801c8.856-4.235 16.028-11.728 20.158-21.051z" class="colorbfb0cc svgShape"></path><path fill="none" stroke="#430b48" stroke-linecap="round" stroke-linejoin="round" stroke-miterlimit="10" stroke-width="8" d="M278.548 371.748v19.495a9.627 9.627 0 0 0 9.627 9.627 9.627 9.627 0 0 0 9.627-9.627v-12.756h19.254v16.366c0 15.95-12.93 28.881-28.881 28.881h0c-15.95 0-28.881-12.93-28.881-28.881v-23.105h19.254z" class="colorStroke430b48 svgStroke"></path><path fill="#bfb0cc" d="M608.686 326.141h-16v-82h16a8 8 0 0 1 8 8v66a8 8 0 0 1-8 8z" class="colorbfb0cc svgShape"></path><path fill="#ffffff" d="M608.686 244.141h-16v11h16a8 8 0 0 1 8 8v-11a8 8 0 0 0-8-8z" class="colorfff svgShape"></path><path fill="none" stroke="#430b48" stroke-linecap="round" stroke-linejoin="round" stroke-miterlimit="10" stroke-width="8" d="M608.686 326.141h-16v-82h16a8 8 0 0 1 8 8v66a8 8 0 0 1-8 8zM392.853 285.141h-36" class="colorStroke430b48 svgStroke"></path><circle cx="340.853" cy="285.141" r="16" fill="#bfb0cc" class="colorbfb0cc svgShape"></circle><circle cx="340.853" cy="285.141" r="16" fill="none" stroke="#430b48" stroke-linecap="round" stroke-linejoin="round" stroke-miterlimit="10" stroke-width="8" class="colorStroke430b48 svgStroke"></circle><path fill="#bfb0cc" d="M396.686 326.141h16v-82h-16a8 8 0 0 0-8 8v66a8 8 0 0 0 8 8z" class="colorbfb0cc svgShape"></path><path fill="#e6eef1" d="M396.686 244.141a8 8 0 0 0-8 8v11a8 8 0 0 1 8-8h16v-11h-16z" class="colore6eef1 svgShape"></path><path fill="none" stroke="#430b48" stroke-linecap="round" stroke-linejoin="round" stroke-miterlimit="10" stroke-width="8" d="M396.686 326.141h16v-82h-16a8 8 0 0 0-8 8v66a8 8 0 0 0 8 8zM608.686 326.141h-16v-82h16a8 8 0 0 1 8 8v66a8 8 0 0 1-8 8z" class="colorStroke430b48 svgStroke"></path><path fill="none" stroke="#430b48" stroke-linecap="round" stroke-linejoin="round" stroke-miterlimit="10" stroke-width="8" d="M396.686 326.141h16v-82h-16a8 8 0 0 0-8 8v66a8 8 0 0 0 8 8z" class="colorStroke430b48 svgStroke"></path><path fill="#e0e0e0" d="M556.686 379.141h-108c-22.091 0-40-17.909-40-40v-108c0-22.091 17.909-40 40-40h108c22.091 0 40 17.909 40 40v108c0 22.092-17.908 40-40 40z" class="colore0e0e0 svgShape"></path><path fill="#e0e0e0" d="M556.686 379.141h-108c-22.091 0-40-17.909-40-40v-108c0-22.091 17.909-40 40-40h108c22.091 0 40 17.909 40 40v108c0 22.092-17.908 40-40 40z" class="colore0e0e0 svgShape"></path><path fill="#e0e0e0" d="M556.686 379.141h-108c-22.091 0-40-17.909-40-40v-108c0-22.091 17.909-40 40-40h108c22.091 0 40 17.909 40 40v108c0 22.092-17.908 40-40 40z" class="colore0e0e0 svgShape"></path><path fill="#ffffff" d="M556.686 191.141h-108c-22.091 0-40 17.909-40 40V241c0-22.091 17.909-40 40-40h108c22.091 0 40 17.909 40 40v-9.859c0-22.091-17.908-40-40-40z" class="colorfff svgShape"></path><path fill="#bfb0cc" d="M556.686 362.735h-108c-22.091 0-40-12.977-40-35.068v11.474c0 22.091 17.909 40 40 40h108c22.091 0 40-17.909 40-40v-11.474c0 22.091-17.908 35.068-40 35.068z" class="colorbfb0cc svgShape"></path><path fill="none" stroke="#430b48" stroke-linecap="round" stroke-linejoin="round" stroke-miterlimit="10" stroke-width="8" d="M556.686 379.141h-108c-22.091 0-40-17.909-40-40v-108c0-22.091 17.909-40 40-40h108c22.091 0 40 17.909 40 40v108c0 22.092-17.908 40-40 40z" class="colorStroke430b48 svgStroke"></path><ellipse cx="502.686" cy="191.141" fill="#fea74a" rx="40" ry="22" class="colorfea74a svgShape"></ellipse><ellipse cx="502.686" cy="191.141" fill="#bbc6cc" rx="40" ry="22" class="colorbbc6cc svgShape"></ellipse><ellipse cx="502.686" cy="191.141" fill="#e0e0e0" rx="40" ry="18.859" class="colore0e0e0 svgShape"></ellipse><path fill="#bfb0cc" d="M541.377 186.558c-2.97 10.479-19.533 13.5-39.524 13.5-18.576 0-34.19-1.926-38.691-11.314-.312 1.101-.476-1.771-.476-.622 0 12.083 17.909 21.878 40 21.878s40-9.795 40-21.878c0-1.923-.457.213-1.309-1.564z" class="colorbfb0cc svgShape"></path><ellipse cx="502.686" cy="191.141" fill="none" stroke="#430b48" stroke-linecap="round" stroke-linejoin="round" stroke-miterlimit="10" stroke-width="8" rx="40" ry="18.859" class="colorStroke430b48 svgStroke"></ellipse><circle cx="502.686" cy="284.294" r="42.14" fill="#cfc3d8" stroke="#cfc3d8" stroke-linecap="round" stroke-linejoin="round" stroke-miterlimit="10" stroke-width="8" class="colorcfc3d8 svgShape colorStrokecfc3d8 svgStroke"></circle><circle cx="502.686" cy="277.64" r="42.14" fill="#e6eef1" class="colore6eef1 svgShape"></circle><circle cx="502.686" cy="277.64" r="42.14" fill="none" stroke="#430b48" stroke-linecap="round" stroke-linejoin="round" stroke-miterlimit="10" stroke-width="8" class="colorStroke430b48 svgStroke"></circle><circle cx="501.853" cy="286.967" r="20.864" fill="#23b5e2" class="color23b5e2 svgShape"></circle><circle cx="501.853" cy="286.967" r="20.864" fill="none" stroke="#430b48" stroke-linecap="round" stroke-linejoin="round" stroke-miterlimit="10" stroke-width="8" class="colorStroke430b48 svgStroke"></circle><circle cx="501.853" cy="286.967" r="11.147" fill="#430b48" class="color430b48 svgShape"></circle><path fill="none" stroke="#bbc6cc" stroke-linecap="round" stroke-linejoin="round" stroke-miterlimit="10" stroke-width="8" d="M546.853 346.735v8M532.131 345.068v11.333M517.409 343.401v14.667M502.686 341.735v18M458.52 346.735v8M473.242 345.068v11.333M487.964 343.401v14.667" class="colorStrokebbc6cc svgStroke"></path><path fill="none" stroke="#430b48" stroke-linecap="round" stroke-linejoin="round" stroke-miterlimit="10" stroke-width="8" d="M546.853 343.735v8M532.131 342.068v11.333M517.409 340.401v14.667M502.686 338.735v18M458.52 343.735v8M473.242 342.068v11.333M487.964 340.401v14.667" class="colorStroke430b48 svgStroke"></path><path fill="#cfc3d8" d="M486.686 379.141h32v44h-32z" class="colorcfc3d8 svgShape"></path><path fill="#430b48" d="M486.686 379.141h32V395.5h-32z" class="color430b48 svgShape"></path><path fill="none" stroke="#430b48" stroke-linecap="round" stroke-linejoin="round" stroke-miterlimit="10" stroke-width="8" d="M486.686 379.141h32v44h-32z" class="colorStroke430b48 svgStroke"></path><path fill="#e0e0e0" d="M638.297 530.185c-18.438 49.992-49.422 93.905-89.134 127.922-26.683 22.856-66.27 22.856-92.953 0-39.712-34.017-70.696-77.93-89.134-127.922-14.489-39.284 7.285-82.365 47.422-94.288 27.945-8.302 57.546-12.756 88.189-12.756s60.244 4.454 88.189 12.756c40.137 11.924 61.91 55.004 47.421 94.288z" class="colore0e0e0 svgShape"></path><path fill="#e0e0e0" d="M638.297 530.185c-18.438 49.992-49.422 93.905-89.134 127.922-26.683 22.856-66.27 22.856-92.953 0-39.712-34.017-70.696-77.93-89.134-127.922-14.489-39.284 7.285-82.365 47.422-94.288 27.945-8.302 57.546-12.756 88.189-12.756s60.244 4.454 88.189 12.756c40.137 11.924 61.91 55.004 47.421 94.288z" class="colore0e0e0 svgShape"></path><path fill="#ffffff" d="M414.497 443.938c27.945-8.302 57.546-12.756 88.189-12.756s60.244 4.454 88.189 12.756c30.276 8.994 50.092 35.718 51.789 65.166 1.792-32.514-18.776-63.4-51.789-73.207-27.945-8.302-57.546-12.756-88.189-12.756s-60.244 4.454-88.189 12.756c-33.013 9.807-53.581 40.694-51.789 73.208 1.697-29.449 21.513-56.173 51.789-65.167z" class="colorfff svgShape"></path><path fill="#cfc3d8" d="M551.342 623.994c-27.934 22.856-69.377 22.856-97.312 0-40.179-32.875-71.82-74.994-91.323-122.909-.549 9.585.811 19.456 4.368 29.101 18.438 49.992 49.422 93.905 89.134 127.922 26.683 22.856 66.27 22.856 92.953 0 39.712-34.017 70.696-77.93 89.134-127.922 3.557-9.644 4.917-19.516 4.368-29.101-19.501 47.915-51.143 90.034-91.322 122.909z" class="colorcfc3d8 svgShape"></path><path fill="none" stroke="#430b48" stroke-linecap="round" stroke-linejoin="round" stroke-miterlimit="10" stroke-width="8" d="M638.297 530.185c-18.438 49.992-49.422 93.905-89.134 127.922-26.683 22.856-66.27 22.856-92.953 0-39.712-34.017-70.696-77.93-89.134-127.922-14.489-39.284 7.285-82.365 47.422-94.288 27.945-8.302 57.546-12.756 88.189-12.756s60.244 4.454 88.189 12.756c40.137 11.924 61.91 55.004 47.421 94.288z" class="colorStroke430b48 svgStroke"></path><linearGradient id="a" x1="502.686" x2="502.686" y1="552.985" y2="488.985" gradientUnits="userSpaceOnUse"><stop offset="0" stop-color="#57aa63" class="stopColor57aa63 svgShape"></stop><stop offset="1" stop-color="#9aa642" class="stopColor9aa642 svgShape"></stop></linearGradient><path fill="url(#a)" d="M547.017 552.985h-88.662c-6.445 0-11.669-5.224-11.669-11.669v-40.662c0-6.445 5.224-11.669 11.669-11.669h88.662c6.445 0 11.669 5.224 11.669 11.669v40.662c0 6.444-5.224 11.669-11.669 11.669z"></path><path fill="none" stroke="#3a3a3a" stroke-linecap="round" stroke-linejoin="round" stroke-miterlimit="10" stroke-width="4" d="m446.686 534.965 14.103-24.167 11.404 33.771 16.064-36.661 12.512 26.41 9.025-34 16.389 44.251 14.676-36.208 17.827 25.986" class="colorStroke3a3a3a svgStroke"></path><path fill="#ffffff" d="M548.626 509.105h-91.88c-5.556 0-10.06-4.504-10.06-10.06 0-5.556 4.504-10.06 10.06-10.06h91.88c5.556 0 10.06 4.504 10.06 10.06 0 5.556-4.504 10.06-10.06 10.06z" opacity=".3" class="colorfff svgShape"></path><path fill="none" stroke="#430b48" stroke-linecap="round" stroke-linejoin="round" stroke-miterlimit="10" stroke-width="6" d="M547.017 552.985h-88.662c-6.445 0-11.669-5.224-11.669-11.669v-40.662c0-6.445 5.224-11.669 11.669-11.669h88.662c6.445 0 11.669 5.224 11.669 11.669v40.662c0 6.444-5.224 11.669-11.669 11.669z" class="colorStroke430b48 svgStroke"></path><ellipse cx="502.686" cy="185.516" fill="#ffffff" rx="13.517" ry="5.625" class="colorfff svgShape"></ellipse><ellipse cx="501.429" cy="279.071" fill="#e6eef1" rx="6.321" ry="4.929" class="colore6eef1 svgShape"></ellipse><ellipse cx="666.061" cy="280.122" fill="#ffffff" rx="5.25" ry="4.019" class="colorfff svgShape"></ellipse><ellipse cx="339.311" cy="280.122" fill="#ffffff" rx="5.25" ry="4.019" class="colorfff svgShape"></ellipse><circle cx="503.333" cy="575.667" r="11.667" fill="#cfc3d8" class="colorcfc3d8 svgShape"></circle><circle cx="503.333" cy="575.667" r="11.667" fill="none" stroke="#430b48" stroke-linecap="round" stroke-linejoin="round" stroke-miterlimit="10" stroke-width="4" class="colorStroke430b48 svgStroke"></circle><path fill="#430b48" d="m509.802 573.302-1.269-2.199a.732.732 0 0 0-.999-.268 1.577 1.577 0 0 1-2.366-1.366.73.73 0 0 0-.731-.731h-2.538a.73.73 0 0 0-.731.731 1.578 1.578 0 0 1-2.366 1.366l-.001-.001a.731.731 0 0 0-.999.268l-1.269 2.199a.731.731 0 0 0 .268.999 1.577 1.577 0 0 1 0 2.732.732.732 0 0 0-.268.999l1.269 2.199c.202.35.649.469.999.268l.001-.001a1.577 1.577 0 0 1 2.366 1.366.73.73 0 0 0 .731.731h2.538a.73.73 0 0 0 .731-.731 1.578 1.578 0 0 1 2.366-1.366c.35.202.797.082.999-.268l1.269-2.199a.731.731 0 0 0-.268-.999 1.577 1.577 0 0 1 0-2.732.73.73 0 0 0 .268-.997z" class="color430b48 svgShape"></path></svg></g></svg>