<svg xmlns="http://www.w3.org/2000/svg" width="240" height="324" fill="none" id="woman"><path fill="#fff" fill-rule="evenodd" d="M194.636 251.935a497.907 497.907 0 0 1-2.341-14.47 388.48 388.48 0 0 1-.961-6.894c-.207-1.612-.522-3.455.575-4.649 1.543-1.681 2.944-3.12 3.133-5.527.178-2.265-.588-4.734-1.067-6.933-1.004-4.611-2.253-9.164-3.634-13.675-1.403-4.583-2.942-9.122-4.503-13.653-1.459-4.237-2.861-8.511-4.762-12.576-3.606-7.713-9.707-13.425-17.248-17.239-1.875-.949-5.701-4.335-7.66-5.093-1.801-.697-1.795 1.338-3.567.572-1.418-.613-2.737-1.431-3.531-2.799-.861-1.487-3.022-3.566-3.351-5.296-.697-3.667.058-6.788-2.558-9.548-2.323-2.451-5.445-4.131-8.675-5.032-7.106-1.983-16.583-.597-20.871 6.009-2.047 3.155-2.763 6.968-5.526 9.543-2.413 2.248-1.873 3.784-4.998 4.943-.177.066-4.975-.964-5.152-.898-3.418-.732-6.686 1.317-9.822 2.506-4.676 1.772-9.128 4.079-13.31 6.82-8.434 5.528-15.657 12.706-21.613 20.829-6.004 8.19-10.662 17.369-13.98 26.963-.805 2.33-1.529 4.689-2.167 7.071-.357 1.333-.739 2.715-.304 4.08.356 1.116 1.147 1.948 2.077 2.618 1.26.908 3.786 1.498 3.737 3.324-.037 1.389-.508 2.85-.738 4.223-.274 1.634-.499 3.278-.723 4.919-1.023 7.471-1.819 14.985-2.17 22.519-.347 7.419-.635 14.99-.12 22.406.034.489.18.938.415 1.318-.22.084-.237.493.036.551l.574.122c.398.301.894.485 1.464.503.387.012.774.03 1.16.05 4.078.852 8.155 1.658 12.286 2.268a306.68 306.68 0 0 0 15.11 1.837c10.38 1.009 20.679.675 31.073.131a397.275 397.275 0 0 1 31.14-.401c10.398.271 20.792.724 31.193.909 11.619.206 23.221-.111 34.807-1.035 1.588-.127 2.571-1.391 2.258-2.969-1.877-9.457-4.004-18.85-5.686-28.347Z" clip-rule="evenodd"></path><path fill="#000" fill-rule="evenodd" d="M94.698 148.487c1.074-.047 2.17.127 3.242.233.093.009.129.153.023.175-1.918.401-3.816.949-5.7 1.506l-.807.239c-2.124.629-4.187 1.278-6.244 2.116-4.099 1.672-7.993 3.928-11.576 6.519-13.798 9.981-23.785 25.091-30.087 40.735a111.212 111.212 0 0 0-5.145 16.274c-.075.318-.401 1.133-.222 1.458.158.288.772.466 1.057.615l.964.5c1.88.969 5.01 2.562 5.325 2.718l.49.241c8.009 3.928 16.566 7.259 25.58 7.489l.07-.77c.402-4.257.93-8.536 2.08-12.662.062-.222.344-.147.37.05.641 4.885.436 9.807.212 14.714-.396 8.691-.922 17.378-1.39 26.065-.233 4.346-.536 8.69-.81 13.033-.273 4.353-.361 8.809-.986 13.126-.14.962-1.266 1.485-2.119 1.384-.944-.113-1.67-.944-1.674-1.898-.012-2.514.304-5.059.48-7.567.166-2.383.345-4.765.529-7.147.67-8.693 1.44-17.376 2.154-26.065.253-3.082.526-6.161.806-9.24-9.547-.308-18.467-3.846-26.977-7.979-.123 2.797-.42 5.59-.708 8.376-.804 7.775-1.513 15.546-2.043 23.345a476.537 476.537 0 0 0-.633 11.827 360.622 360.622 0 0 0-.251 7.757l-.03 1.481c-.023.938-.118 1.808-.908 2.491-.801.694-1.884.731-2.678 0-1.062-.979-.874-2.312-.843-3.626a353.812 353.812 0 0 1 .375-9.972c.399-7.743 1.195-15.455 2.235-23.136l.407-2.965c.758-5.512 1.59-11.15 3.286-16.459a349.5 349.5 0 0 1-1.974-.992c-1.163-.589-2.366-1.142-3.497-1.792-.897-.516-1.67-1.224-1.92-2.268-.279-1.164.147-2.436.43-3.571l.025-.1c.277-1.143.576-2.281.891-3.414a112.64 112.64 0 0 1 4.709-13.494c3.703-8.799 8.483-17.158 14.323-24.716 5.256-6.804 11.465-12.973 18.742-17.601 3.558-2.262 7.35-4.12 11.359-5.433 1.874-.614 3.913-1.148 5.876-1.367a46.38 46.38 0 0 1 3.181-.233Zm19.038-13.943c1.276-1.371 3.813.048 3.2 1.864-1.442 4.274-3.738 8.172-7.322 10.98-3.369 2.639-7.386 4.354-11.713 3.988a.259.259 0 0 1-.088-.024l.373.506c2.927 3.961 6.015 7.867 9.737 11.105 7.583 6.596 17.908 10.154 27.877 7.623 7.844-1.991 14.755-8.196 16.787-16.104a1.61 1.61 0 0 1-1.017.093c-1.627-.353-3.236-2.064-4.285-3.291a15.563 15.563 0 0 1-2.67-4.38c-1.189-2.964-1.57-6.781.053-9.652.2-.354.662-.156.701.19l.062.539c.313 2.691.703 5.294 1.971 7.748.621 1.2 1.365 2.372 2.271 3.377a13.18 13.18 0 0 0 1.577 1.503c.553.44 1.222.757 1.717 1.262l.091.096.003-.017c.125-1.065.872-1.535 1.603-1.505.707.028 1.537.34 1.859.489l.031.014c4.933 2.369 9.477 5.457 13.753 8.883 8.843 7.086 15.468 16.348 18.678 27.255 1.576 5.354 2.48 10.87 3.435 16.36l.587 3.364c.891 5.069 1.886 10.237 3.897 14.952.52 1.219.119 2.363-1.156 2.843a308.712 308.712 0 0 1-4.792 1.751c.786 3.374 1.265 6.865 1.854 10.255 1.252 7.207 2.786 14.368 4.101 21.565.673 3.68 1.28 7.373 1.951 11.053.324 1.772.661 3.542.99 5.314.177.955.337 1.913.506 2.87l.029.159c.097.504.218 1.026.08 1.531-.159.576-.608.983-1.009 1.396-.33.34-.808.342-1.212.157l-.133-.062c-.723-.338-1.289-.675-1.545-1.491-.163-.516-.221-1.098-.327-1.63a143.76 143.76 0 0 1-.579-3.064 752.56 752.56 0 0 1-1.067-6.151l-.324-1.921c-1.114-6.622-2.171-13.283-2.706-19.975-.237-2.968-.488-5.934-.742-8.901l-.19-2.225c-.241-2.816-.535-5.703-.577-8.558l-.957.34-4.672 1.652c-1.158.41-2.632 1.249-3.879 1.096-.61-.075-1.075-.267-1.434-.616a318.81 318.81 0 0 0 1.788 18.166c.706 5.488 1.489 10.969 2.413 16.424.458 2.702.929 5.401 1.44 8.092.255 1.347.519 2.691.79 4.034.136.67.297 1.34.403 2.016.121.773-.092 1.249-.524 1.886-.355.522-1.065.791-1.64.43-.762-.478-1.159-.893-1.384-1.764-.203-.791-.327-1.617-.485-2.418-.291-1.479-.572-2.96-.843-4.442a291.103 291.103 0 0 1-1.558-9.328c-1.647-10.983-2.692-22.059-3.22-33.153a294.154 294.154 0 0 1-.295-16.43c.024-2.809.116-5.625.314-8.426.201-2.836.62-5.615.993-8.424.013-.099.153-.104.159 0 .176 3.149.454 6.294.589 9.451.13 3.012.187 6.029.29 9.043.136 3.961.323 7.925.572 11.885.45-.492 1.129-.777 1.808-.666.984-.206 2.042-.722 2.98-1.036l3.536-1.181a478.871 478.871 0 0 1 5.582-1.836c-1.668-5.612-2.81-11.308-3.785-17.086l-.435-2.599c-.862-5.116-1.79-10.234-3.35-15.188a48.564 48.564 0 0 0-7.348-14.435c-3.208-4.321-7.112-8.126-11.131-11.685-3.441-3.047-7.122-5.798-10.632-8.761.037.196.045.412.013.65-.747 5.463-3.595 10.551-7.566 14.335-7.976 7.603-19.783 9.18-29.992 5.615-9.876-3.448-18.607-11.615-21.691-21.722-.053-.172.178-.241.271-.114.171.235.343.469.516.704a.225.225 0 0 1 .151-.239c3.6-1.391 7.134-3.362 9.832-6.151a21.177 21.177 0 0 0 3.368-4.562c.434-.795.824-1.619 1.135-2.471l.079-.22c.377-1.067.692-2.155 1.479-3Z" clip-rule="evenodd"></path><path fill="#fff" fill-rule="evenodd" d="m111.129 50.584 1.825 2.17a58.146 58.146 0 0 0-2.861 2.148l-.001-.002c4.156-2.713 8.758-4.316 13.73-4.316 9.577 0 29.029 8.23 33.426 14.165 2.182 2.946 6.237 11.99 8.341 21.82 1.69 7.9 4.204 30.217 1.69 38.603-3.217 10.733-13.802 20.652-24.716 20.652-10.914 0-27.859-7.882-39.918-25.156-.552-.79-6.884-1.706-11.402-4.671l1.186 13.072.902 7.604-.2.541c-3.235 8.753-5.799 13.32-7.69 13.7-1.932.388-5.864-2.779-11.798-9.499l-.758-3.184c-1.926-8.121-2.889-12.48-2.889-13.078l.001-.108c.029-1.375.502-9.154.512-11.248V82.419c6.382-21.223 12.471-31.835 18.27-31.835h22.35Z" clip-rule="evenodd"></path><path fill="#000" fill-rule="evenodd" d="M96.008 43.356c1.877-.727 4.051-.59 5.832.505 3.496-.15 6.974 1.896 8.797 4.883.038.042.078.084.114.126l.386.45c.366.431.752.905 1.058 1.395-1.498.034-2.745.645-3.616 1.878-.621.88.802 1.716 1.437.884l.022-.03c.523-.741 1.313-1.028 2.191-1.043a.789.789 0 0 0 .579-.243c.054.196.102.395.146.594 4.425-1.722 9.194-2.177 13.945-1.769a5.56 5.56 0 0 0-.517 1.079c-.152.43.172.924.591 1.04.452.124.86-.141 1.024-.551l.015-.04a3.04 3.04 0 0 1 .881-1.306c2.236.303 4.456.786 6.623 1.407a72.413 72.413 0 0 1 7.704 2.706c-.427.168-.796.451-1.055.924-.515.944.903 1.789 1.441.887l.019-.034a.77.77 0 0 1 .134-.188l.012-.01.074-.035.139-.04.053-.013c.047-.01.066-.01.19-.017.164-.009.329-.008.494-.008a.764.764 0 0 0 .745-.492 81.072 81.072 0 0 1 3.681 1.773l.287.149c3.725 1.947 7.255 4.505 9.302 8.267.135.252.177.527.144.789.437.524.86 1.065 1.265 1.614 1.238 1.683 2.145 3.595 3.002 5.491 1.726 3.813 2.888 7.73 3.795 11.813.877 3.935 1.584 7.913 2.241 11.89.729 4.42 1.335 8.877 1.462 13.36.224 7.991-1.337 16.028-5.822 22.756-4.002 6.002-10.027 10.768-17.172 12.294-7.268 1.551-14.958.038-20.685-4.806-.924-.78-.797-2.355 0-3.153.902-.901 2.233-.776 3.152 0 5.393 4.563 13.244 5.266 19.743 2.941 6.008-2.151 10.715-7.114 13.603-12.687 3.524-6.797 4.118-14.604 3.577-22.124-.296-4.13-.911-8.226-1.544-12.315l-.383-2.462c-.417-2.666-.856-5.33-1.428-7.969l-.134-.614c-.699-3.183-1.517-6.447-2.783-9.44-.664-1.57-1.462-3.083-2.28-4.577-.158-.29-.321-.584-.488-.88-.224.079-.48.091-.748.007-2.309-.719-4.682-1.2-7.096-1.361a31.268 31.268 0 0 0-3.303-.042c-1.884-.11-3.82.056-5.615.633-.175-.15-.353-.298-.531-.445a1.243 1.243 0 0 1-.144-.019c-.458-.09-.78-.415-.974-.826l-.028-.066a35.439 35.439 0 0 0-.695-.519c-.569.148-1.068-.326-1.203-.845-.126-.086-.255-.169-.383-.253-.101.025-.2.045-.298.052a2.15 2.15 0 0 1-1.196-.234c-.47-.253-.771-.662-.972-1.126-.711.043-1.431-.188-2.067-.605-.517-.34-.912-.807-1.305-1.274a44.25 44.25 0 0 0-15.22-3.723c-.514.099-1.025.216-1.529.353-.12.033-.289.097-.484.173a13.396 13.396 0 0 1 3.538.018c5.674.82 10.092 5.07 13.895 9.081.905-.183 1.819.99.982 1.765l-6.528 6.052c.161.676-.615 1.343-1.295 1.18-1.139-.273-2.281-.54-3.423-.801-1.192.576-2.69.478-3.771-.358-.05-.04-.159-.101-.254-.163-.089.073-.208.147-.256.178-.384.255-.852.33-1.301.258-.462-.073-.879-.308-1.238-.6-.229-.185-.762-.961-1.059-1.018l-.028-.004c.197.006-.439.598-.61.72-.399.285-.84.434-1.336.38-.865-.095-1.608-.884-2.031-1.612l-.032-.056-.014-.035-.011.038-.007.021c-.064.172-.263.367-.398.487-.385.34-.862.49-1.372.401-.431-.075-.794-.335-1.085-.65l-.046-.051c-.086-.097-.654-.861-.564-1.044l.01-.016-.028-.005c-.346.085-.636 0-.849-.179a32.45 32.45 0 0 1-3.49-.948c-.088.25-.175.499-.259.75.618.383 1.191.928 1.717 1.317.997.736 1.994 1.471 2.989 2.209l3.943 2.91.451-.122c.576-.154 1.07.181 1.282.694l.017.044c.084.225.185.433.304.631.985-.039 1.82.566 2.09 1.435.243-.006.489.004.74.031.689.076 1.153.587 1.028 1.29l-.009.048-.017.078a1.2 1.2 0 0 1 .753.992c.107.16.193.336.248.53.288 1.012-.272 2.262-.57 3.23l-.023.076c-.192.637-.39 1.27-.591 1.904l-.499 1.572c-1.385 4.382-2.736 9.001-1.615 13.595.239.972-1.003 1.412-1.542.651a60.923 60.923 0 0 0-4.199-5.244l-.072-.012c-1.037-.208-1.44-.942-1.916-1.689a1.86 1.86 0 0 1-.874.046c-.422-.081-.8-.323-1.099-.627-.253-.258-.485-.92-.784-1.085-.373-.205-1.125.088-1.572.022a3.625 3.625 0 0 1-1.031-.334 5.706 5.706 0 0 0-1.104 2.838 2.34 2.34 0 0 1-.327 1.012 8.58 8.58 0 0 1 1.884.138c2.307.429 3.962 1.853 4.891 3.975.04.093-.08.169-.135.081-1.38-2.124-4.382-2.232-6.562-1.484-2.316.795-3.615 2.834-4.077 5.161-.507 2.551.143 5.301 1.531 7.473.645 1.011 1.524 1.932 2.692 2.304 1.388.442 2.67-.349 4.092.059.968.277 1.394 1.214 1.219 2.15a2.82 2.82 0 0 1-.372.968c.512 1.014.985 2.058 1.587 3.018.929 1.481 2.053 2.707 3.279 3.944 1.265 1.276 2.554 2.527 3.908 3.711 1.297 1.135 2.785 1.942 4.145 2.982.955.729 1.428 1.752.957 2.923-.388.968-1.698 1.792-2.759 1.355-2.03-.837-3.807-2.262-5.425-3.728a18.978 18.978 0 0 1-3.793-4.756c-.93-1.665-1.616-3.557-2.195-5.379l-.072-.228c-.272-.866-.559-1.841-.745-2.823-1.113.608-2.624.697-3.816.532-1.924-.264-3.68-1.234-5.007-2.648a12.135 12.135 0 0 1-1.637-2.222c.043.495.069.974.096 1.41a5.039 5.039 0 0 1 1.154 4.544c.923.95 1.181 2.377.7 3.591 1.01 1.002.972 2.597.535 4.046 1.194 1.335 1.307 3.415.375 4.921l-.028.108c.941 1.576.729 3.613-.45 5.004.805 1.563.68 3.666-1.333 4.273a2.176 2.176 0 0 1-1.977-.379c.486 2.417.703 4.872.055 7.3-.257.964-1.2 1.668-2.19 1.668-.829 0-1.43-.416-1.847-1.029a14.897 14.897 0 0 1-.285 3.681c-.157.747-.85 1.329-1.584 1.51.265.299.37.731.117 1.182-1.078 1.908-3.682 1.117-3.858-.712-.735-.549-1.077-1.45-1.219-2.424-.206-1.421-.28-2.818-.514-4.221l-.09.084-.046.04-.015.101c-.134.693-.525 1.179-1.032 1.468.11 1.21-.093 2.441-.86 3.359-.511.613-1.381.853-2.127.721a.787.787 0 0 1-.145-.005c-1.69-.224-2.667-1.827-2.222-3.299-.68-.834-.967-1.892-.766-2.938-1.316-.872-1.29-2.787-.834-4.326-1.38-1.089-1.899-3.126-1.205-4.745-1.244-1.545-1.417-3.698-.572-5.458-1.368-1.124-1.36-3.295-.003-4.445-.723-1.436-1.159-3.156-.437-4.469a2.923 2.923 0 0 1-.73-2.139c.086-1.138.839-1.924 1.773-2.448l.064-.356a.789.789 0 0 0 .66-.232c.203-.196.413-.354.63-.484a.816.816 0 0 0 .606-.281 4.23 4.23 0 0 1 1.33-.205c1.048-.011 1.085-1.579.11-1.681a.843.843 0 0 0-.597-.253h-.18c-.421.004-.846.03-1.237.198-.254.109-.45.272-.594.473-.026.303-.191.605-.548.855a1.325 1.325 0 0 1-1.417.061c-.618-.366-.624-.936-.553-1.555.156-1.356-.623-2.632-.437-4.018.082-.614.286-1.143.619-1.571a3.646 3.646 0 0 1-.286-3.56c-1.125-1.211-1.32-3.078-.602-4.536.01-.035.018-.071.03-.106.08-.248.193-.471.316-.685a3.488 3.488 0 0 1 .015-3.519c-.97-1.131-1.001-2.93-.138-4.15.005-.1.015-.201.024-.302-.396-1.029-.301-2.198.201-3.154a6.195 6.195 0 0 1-.406-1.332c-.226-1.221-.11-2.41.229-3.601.054-.188.116-.376.181-.565.011-.816.042-1.629.083-2.44-.16-.687-.186-1.442-.19-2.142V84c-.009-1.156-.09-2.85.641-3.832-.469-1.062-.276-2.4.507-3.242-.55-.945-.665-2.107-.112-3.156.088-.169.191-.326.304-.475a5.543 5.543 0 0 1 .669-2.907c.332-.622.829-1.16 1.42-1.59a4.047 4.047 0 0 1-.015-.38c.01-.56.135-1.122.343-1.646-.374-.64-.548-1.36-.329-2.137.245-.88.89-1.636 1.695-2.063.065-.829.194-1.653.38-2.466-.496-1.102-.102-2.556 1.016-3.205-.146-.88-.014-1.793.626-2.481a2.46 2.46 0 0 1 .837-.59c-.148-.885.019-1.806.631-2.527.5-.588 1.24-.946 1.994-.998.29-1.54 1.761-2.692 3.313-2.6a2.374 2.374 0 0 1 1.931-1.724c1.262-1.273 3.14-2.136 4.766-2.578 1.631-.442 3.285-.484 4.685.029l.102.038.114-.014c.495-.055.99-.087 1.483-.1ZM83.614 147.707c-.436-.135-.922.161-1.04.591-.125.454.153.904.59 1.04.545.17 1.117.212 1.685.213a.859.859 0 0 0 .845-.846.856.856 0 0 0-.845-.845c-.462-.001-.802-.017-1.235-.153Zm-3.876-8.978c-.651.001-1.21.157-1.693.613-.322.305-.33.893 0 1.196a.861.861 0 0 0 1.16.032l.065-.059.02-.017a.954.954 0 0 1 .083-.051l-.055.036c-.042.03.056-.02.11-.043l.017-.007.006-.001.044-.004c.08-.004.162-.004.243-.004.442 0 .865-.388.845-.845-.02-.458-.371-.846-.845-.846Zm12.291-5.363c.915-.561.098-1.996-.82-1.48l-.033.02c-.47.289-1.049.249-1.581.25-1.088 0-1.09 1.691 0 1.69h.18c.78-.006 1.57-.061 2.254-.48Zm-7.198-6.171c-.691-.13-1.466-.247-2.193-.167l-.12.015h-.224a.856.856 0 0 0-.534.201c-.239.099-.465.232-.672.411-.823.715.376 1.906 1.195 1.196a.668.668 0 0 1 .157-.099l.045-.019h.904a.817.817 0 0 0 .24-.041c.294.04.567.098.752.133 1.064.2 1.519-1.429.45-1.63Zm-.772-16.228c-1.325-.614-2.792-.61-4.017.243-.876.611-.062 2.05.821 1.482l.032-.022c.11-.076.223-.14.337-.198.622.18 1.248.188 1.85-.033l.077-.03.047.018c.98.455 1.84-1.002.853-1.46Zm14.424-2.649c-1.338-.15-1.349-2.265 0-2.114 2.848.32 5.432 1.587 7.325 3.762.881 1.012-.569 2.492-1.466 1.525l-.028-.031c-1.505-1.729-3.536-2.885-5.83-3.142ZM83.492 97.46a5.656 5.656 0 0 0-.887-.034c-.702.034-1.556.502-1.248 1.348.247.678 1.056.705 1.456.343.166.004.332.015.498.032.441.046.878.13 1.313.216 1.063.209 1.517-1.42.45-1.63l-.473-.094c-.159-.032-.32-.062-.48-.09a.835.835 0 0 0-.312-.088l-.055-.003h-.262Zm-8.397-13.117-.1-.014c-1.427-.182-3.717-.014-3.89 1.803-.096 1.007 1.357 1.07 1.644.21a11.005 11.005 0 0 1 3.163-.112c.4-.406.402-1.186-.262-1.38-.094-.253-.29-.469-.555-.507Zm32.621-3.07c-.33-.302-.87-.343-1.195 0a2.84 2.84 0 0 0-.467.659l-.082.163a2.384 2.384 0 0 1-.043.08c-.028.05-.059.096-.089.144l-.02.02-.029.03c-.304.322-.343.881 0 1.196.33.303.87.343 1.195 0 .187-.198.343-.417.467-.658l.082-.163a2.48 2.48 0 0 1 .043-.08c.027-.05.059-.097.089-.145l.033-.033.016-.017c.304-.321.343-.88 0-1.195Zm-17.33-2.201c-1.19-.844-2.606-.884-3.7.132-.79.733.37 1.907 1.166 1.22l.028-.024c.03-.028.059-.051.088-.074a.812.812 0 0 0 .532.2h.162l.081.003.044.004.005.001.038.016c.07.032.166.08.034-.002.03.015.057.033.085.05l.048.045c.319.302.87.341 1.186.008.56-.19.858-1.116.203-1.58Zm11.642-2.77.022-.007c1.044-.298.6-1.93-.45-1.63-1.113.318-1.645 1.355-1.868 2.416-.093.447.131.914.591 1.04.419.116.945-.141 1.039-.59a3.5 3.5 0 0 1 .263-.832l.073-.142c.034-.065.046-.075.161-.176a.828.828 0 0 1 .169-.079Zm-17.684-8.515-.164-.038c-1.017-.222-2.367-.339-2.981.67-.56.919.853 1.755 1.434.887a.26.26 0 0 1 .031 0l.02.003.26-.022c.325-.002.635.056.95.13 1.058.25 1.51-1.38.45-1.63Zm36.514-6.5c.77-.77-.425-1.967-1.195-1.196-.609.61-1.197 1.223-1.593 1.997-.207.407-.106.918.304 1.157.377.221.947.105 1.156-.303.343-.671.776-1.103 1.328-1.655Zm-9.717-2.022c-.761.45-1.253 1.192-1.552 2.052-.15.43.171.924.59 1.04.451.123.862-.14 1.024-.551l.015-.04c.08-.23.208-.501.367-.706.135-.175.345-.35.504-.408.38-.14.65-.485.615-.888-.626.216-1.208-.044-1.563-.5Zm-22.774-3.678c-.767-.713-1.797-.807-2.728-.376-.414.192-.517.79-.303 1.157.249.425.74.496 1.156.303-.106.05.086-.016.17-.04.01.005.15 0 .198 0l.058.004-.043-.001c.04.009.08.02.12.032l.05.018c-.025-.005.09.069.121.094l.006.005c.797.739 1.995-.454 1.195-1.196Z" clip-rule="evenodd"></path><path fill="#000" fill-rule="evenodd" d="M149.69 120.753c.725-1.28 2.888-1.072 3.218.42.671 3.026-2.935 5.819-5.674 5.889-2.722.069-5.776-2.248-5.382-5.176.098-.724 1.064-.636 1.394-.182l.128.174c.895 1.203 2.076 2.449 3.738 2.155.688-.121 1.313-.551 1.73-1.105.502-.669.447-1.467.848-2.175ZM132.383 98.62a1.617 1.617 0 0 1 1.068.077c.73.133 1.339.742 1.554 1.437.016.06.035.12.056.178l.033.088-.088-.223c.041.22.219.45.283.67.079.271.099.579.072.877.232.002.464.01.695.03l.224.02c1.252.116 2.625.33 3.367 1.411.417.608.026 1.703-.74 1.82-1.178.18-2.193-.472-3.367-.603-1.11-.123-2.272-.053-3.367.148-2.262.414-4.341 1.331-6.545 1.906l-.3.077v-.002c-.378.091-.807-.434-.433-.741 1.766-1.452 4.027-2.628 6.255-3.344-.325-.516-.425-1.197-.203-1.751.034-.115.077-.226.121-.338l.094-.229c.009-.108.03-.215.06-.32l.005-.031.003.002c.165-.54.599-1.006 1.153-1.16Zm22.53.083c.483-.483 1.162-.412 1.666-.031l.067.052c.475.211.868.673 1.127 1.1.268.444.446.897.453 1.386 1.169.003 2.289.354 3.147 1.298.277.305.467.775.314 1.188l-.091.246c-.288.781-1.584 1.23-2.024.312l-.021-.045c-.468-1.089-2.264-.975-3.219-.864-.665.078-1.322.244-1.965.429-.227.066-.451.136-.675.209l-.224.073c-.12.038-.743.377-.355.296.104-.021.182.131.076.182-.462.22-.954-.219-.924-.716.054-.861 1.421-1.333 2.079-1.63l.04-.018c.252-.117.516-.229.789-.333a3.847 3.847 0 0 1-.386-.754 3.329 3.329 0 0 1-.202-.78.757.757 0 0 1 0-.4l.005-.039a1.23 1.23 0 0 1-.026-.272l-.004-.035h.004c.013-.322.141-.645.349-.854Zm-7.716 9.174c1.855.574 4.916 2.136 3.949 4.548-1.35 2.215-4.93.587-6.666-.129-1.559-.516-2.37 1.669-.863 2.328 12.456 4.93 12.41-8.081 4.031-7.89-.922.021-.951.952-.451 1.143Zm-16.48-16.965.316-.092c1.645-.477 3.324-1.3 4.784-.015.574.504.692 1.552.281 2.18-.934 1.434-2.32 1.215-3.83 1.337-1.149.093-2.281.43-3.354.853-.877.345-1.69.83-2.458 1.373-.754.533-1.269 1.366-2.043 1.845-.284.176-.611-.005-.713-.29-.361-1.011.249-2.271.765-3.133.63-1.051 1.586-1.91 2.615-2.561 1.126-.713 2.372-1.124 3.637-1.497Zm23.965-1.088c2.78 0 5.455 1.546 7.01 3.814.529.77.141 1.911-.617 2.355-.851.498-1.761.14-2.322-.574l-.033-.043a8.651 8.651 0 0 0-3.404-2.733 9.002 9.002 0 0 0-2.119-.66l-.232-.04c-.326-.055-.704-.108-.999-.056-.157.02-.302.073-.436.152.064.14-.101.31-.255.225-.69-.38-.606-1.056-.035-1.583.807-.744 2.399-.857 3.442-.857Z" clip-rule="evenodd"></path></svg>